<svg id="图层_1" data-name="图层 1" xmlns="http://www.w3.org/2000/svg" xmlns:xlink="http://www.w3.org/1999/xlink" viewBox="0 0 769.17 236.09"><defs><style>.cls-1{fill:none;}.cls-2{clip-path:url(#clip-path);}.cls-3{fill:#2a7de1;}</style><clipPath id="clip-path" transform="translate(-10.31 -14.32)"><rect class="cls-1" width="794.35" height="300.26"/></clipPath></defs><title>迷你创想LOGO_2021.3.10</title><g class="cls-2"><path class="cls-3" d="M623.87,65.78H548.7a4.93,4.93,0,0,1-5-4.83V40.82a4.94,4.94,0,0,1,5-4.83h75.17a4.94,4.94,0,0,0,5-4.83V26a4.94,4.94,0,0,1,5-4.83h24.79a4.93,4.93,0,0,1,5,4.83v5.17a4.94,4.94,0,0,0,5,4.83h25.83a5,5,0,0,1,5,4.83V61a4.94,4.94,0,0,1-5,4.83H668.81a4.94,4.94,0,0,0-5,4.83v59.64a4.93,4.93,0,0,1-5,4.83H634a4.94,4.94,0,0,1-5-4.83V70.61a4.94,4.94,0,0,0-5-4.83" transform="translate(-10.31 -14.32)"/><path class="cls-3" d="M711,26V129.55c0,2.65,2.5,4.8,5.59,4.8h57.31c3.09,0,5.59-2.15,5.59-4.8V26c0-2.65-2.5-4.8-5.59-4.8H716.58c-3.09,0-5.59,2.15-5.59,4.8m36.94,83.22h-5.16c-3.09,0-5.6-2.15-5.6-4.8v-.23c0-2.65,2.51-4.8,5.6-4.8h5.16c3.09,0,5.59,2.15,5.59,4.8v.23c0,2.65-2.5,4.8-5.59,4.8m0-26.69h-5.16c-3.09,0-5.6-2.15-5.6-4.8h0c0-2.65,2.51-4.8,5.6-4.8h5.16c3.09,0,5.59,2.15,5.59,4.8h0c0,2.65-2.5,4.8-5.59,4.8m0-26.45h-5.16c-3.09,0-5.6-2.15-5.6-4.8s2.51-4.8,5.6-4.8h5.16c3.09,0,5.59,2.15,5.59,4.8S751,56,747.93,56" transform="translate(-10.31 -14.32)"/><path class="cls-3" d="M615.62,140.76h-20.5a4.21,4.21,0,0,0-4.31,4.32l-.16,57.26a5.7,5.7,0,0,0,5.53,5.57h20.5a4.22,4.22,0,0,0,4.31-4.32l.16-57.25a5.71,5.71,0,0,0-5.53-5.58" transform="translate(-10.31 -14.32)"/><path class="cls-3" d="M774,140.76H750.33a4.23,4.23,0,0,0-4.31,4.32l-.15,57.26a5.69,5.69,0,0,0,5.52,5.57H775a4.23,4.23,0,0,0,4.31-4.32l.15-57.25a5.7,5.7,0,0,0-5.52-5.58" transform="translate(-10.31 -14.32)"/><path class="cls-3" d="M614.73,74.49H595.1A4,4,0,0,0,591,78.4l-.31,51.65a5.29,5.29,0,0,0,5.27,5h19.63a4,4,0,0,0,4.14-3.9L620,79.53a5.29,5.29,0,0,0-5.27-5" transform="translate(-10.31 -14.32)"/><path class="cls-3" d="M733.42,164.84V145.21a4,4,0,0,0-3.9-4.14l-51.65-.31a5.29,5.29,0,0,0-5,5.27v19.63a3.94,3.94,0,0,0,3.91,4.13l51.65.32a5.29,5.29,0,0,0,5-5.27" transform="translate(-10.31 -14.32)"/><path class="cls-3" d="M696.1,74.49h-19a3.87,3.87,0,0,0-4,3.91l-.31,51.65a5.2,5.2,0,0,0,5.1,5h19a3.88,3.88,0,0,0,4-3.9l.3-51.65a5.2,5.2,0,0,0-5.09-5" transform="translate(-10.31 -14.32)"/><path class="cls-3" d="M431.84,65.6H413.71c-2.49,0-4.33-2.44-4.24-5.13a5.58,5.58,0,0,1,.68-2.38l17.46-33.62a6.23,6.23,0,0,1,5.52-3.36H481.2A6.24,6.24,0,0,1,487,25L500.57,59.2c.91,3.21-1.14,6.51-4,6.51H478.49c-1.77,0-3.15-1.41-4.19-3.21-.1-.17-.18-.34-.26-.51l-4.29-9.23a6.23,6.23,0,0,0-5.65-3.6H447.47a6.25,6.25,0,0,0-5.42,3.14l-5.6,9.85c-1.26,2-2.76,3.45-4.61,3.45" transform="translate(-10.31 -14.32)"/><path class="cls-3" d="M317.38,207.92a3.28,3.28,0,0,1-3.28-3.28V68a2.39,2.39,0,0,0-2.38-2.38l-25.32,0a3.51,3.51,0,0,1-2.48-1L265.16,45.91a2.84,2.84,0,0,1,0-4l26.11-26.75a2.86,2.86,0,0,1,4,0L313.67,33.5a11,11,0,0,0,7.77,3.22H383A3.29,3.29,0,0,1,386.27,40V62.32A3.29,3.29,0,0,1,383,65.6H351A2.38,2.38,0,0,0,348.66,68V204.64a3.28,3.28,0,0,1-3.28,3.28Z" transform="translate(-10.31 -14.32)"/><path class="cls-3" d="M76.55,33.45,59.78,16.68a8.51,8.51,0,0,0-11.76,0L12.75,52a8.3,8.3,0,0,0,0,11.76L29.53,80.5a8.34,8.34,0,0,0,11.76,0L76.53,45.23a8.33,8.33,0,0,0,0-11.78M53.89,25,68.22,39.34,35.4,72.16,21.07,57.83Z" transform="translate(-10.31 -14.32)"/><path class="cls-3" d="M82.92,92.8q-.11,10.92,0,21.82c0,2.5,1.44,3.71,4.1,3.74s5.3,0,8,0h30.17c2.13,0,3.34.67,3.66,2.09.16.69.14,10.26.15,11q0,16.41,0,32.81c0,3.32,1.25,4.47,4.8,4.47H155.5c3.44,0,4.61-1.1,4.61-4.29V122.77c0-3.68.76-4.4,4.61-4.4h36.66c3.72,0,4.8-1,4.8-4.57V93.65c0-3.55-1.13-4.6-5-4.6H164.55c-3.67,0-4.44-.74-4.44-4.24V69.24q0-12.66,0-25.33c0-2.53-1.21-3.95-3.65-4q-11.83-.11-23.68,0A3.43,3.43,0,0,0,129,43.51c-.06.81,0,1.63,0,2.44,0,16.07,0,23.3,0,39.38,0,2.89-.88,3.7-4,3.71-2.92,0-5.84,0-8.76,0H87.51c-3.12,0-4.57,1.11-4.59,3.75" transform="translate(-10.31 -14.32)"/><path class="cls-3" d="M87.08,82.87c7.57,0,15.14,0,22.71,0,3,0,4.24-1.22,4.24-4q0-8.92,0-17.85c0-6,0-12.1,0-18.16,0-2.54-1.31-3.9-3.89-3.91q-11.6-.06-23.19,0c-2.67,0-4,1.29-4,3.8q-.07,18.15,0,36.31c0,2.59,1.42,3.82,4.17,3.82" transform="translate(-10.31 -14.32)"/><path class="cls-3" d="M179.5,82.88q11.12,0,22.22,0c3.23,0,4.45-1.15,4.45-4.13,0-5.9,0-11.8,0-17.7,0-6.06,0-12.11,0-18.16,0-2.68-1.33-4-4.17-4q-11.28,0-22.55,0c-3.06,0-4.41,1.24-4.41,4.08q0,17.85,0,35.7c0,3,1.34,4.17,4.47,4.17" transform="translate(-10.31 -14.32)"/><path class="cls-3" d="M87.08,168.45q11.36,0,22.71,0c3,0,4.24-1.22,4.24-4q0-8.93,0-17.85c0-6.05,0-12.1,0-18.15,0-2.55-1.31-3.9-3.89-3.92q-11.6-.06-23.19,0c-2.67,0-4,1.29-4,3.8q-.07,18.15,0,36.31c0,2.59,1.42,3.82,4.17,3.83" transform="translate(-10.31 -14.32)"/><path class="cls-3" d="M179.5,168.45q11.12,0,22.22,0c3.23,0,4.45-1.15,4.45-4.13,0-5.9,0-11.8,0-17.7,0-6.05,0-12.11,0-18.16,0-2.68-1.33-4-4.17-4q-11.28,0-22.55,0c-3.06,0-4.41,1.24-4.41,4.08q0,17.85,0,35.71c0,3,1.34,4.16,4.47,4.16" transform="translate(-10.31 -14.32)"/><rect class="cls-3" x="309.36" y="22.41" width="109.8" height="28.87"/><path class="cls-3" d="M388.9,82.92H366.59c-1.8,0-3.28,1.76-3.28,3.93v75.2c0,2.16,1.48,3.92,3.28,3.92H388.9c1.81,0,3.28-1.76,3.28-3.92V86.84c0-2.16-1.47-3.92-3.28-3.92" transform="translate(-10.31 -14.32)"/><path class="cls-3" d="M531.85,36.35H509.54c-1.8,0-3.28,2.53-3.28,5.65V150.15c0,3.12,1.48,5.65,3.28,5.65h22.31c1.81,0,3.28-2.54,3.28-5.65V42c0-3.11-1.47-5.64-3.28-5.64" transform="translate(-10.31 -14.32)"/><path class="cls-3" d="M297.62,82.92H275.31c-1.81,0-3.28,1.76-3.28,3.93v75.2c0,2.16,1.47,3.92,3.28,3.92h22.31c1.8,0,3.27-1.76,3.27-3.92V86.84c0-2.16-1.47-3.92-3.27-3.92" transform="translate(-10.31 -14.32)"/><path class="cls-3" d="M531.51,220.63v28.25a1.52,1.52,0,0,1-1.53,1.53h-2.82a1.52,1.52,0,0,1-1.52-1.53V232.55a1.52,1.52,0,0,0-2.45-1.21l-3.33,2.54-3.86,3a1.5,1.5,0,0,1-1.86,0l-3.86-3L507,231.34a1.52,1.52,0,0,0-2.45,1.21v16.33a1.52,1.52,0,0,1-1.52,1.53h-2.82a1.52,1.52,0,0,1-1.53-1.53V220.63a1.53,1.53,0,0,1,2.46-1.21L504.5,222l9.64,7.41a1.53,1.53,0,0,0,1.86,0l9.64-7.41,3.41-2.62a1.53,1.53,0,0,1,2.46,1.21" transform="translate(-10.31 -14.32)"/><path class="cls-3" d="M544.21,248.88V219.06a1.52,1.52,0,0,1,1.52-1.53h2.82a1.53,1.53,0,0,1,1.53,1.53v29.82a1.53,1.53,0,0,1-1.53,1.53h-2.82a1.52,1.52,0,0,1-1.52-1.53" transform="translate(-10.31 -14.32)"/><path class="cls-3" d="M595.65,219v28.27a1.52,1.52,0,0,1-2.45,1.21l-3.42-2.62L571.1,231.5a1.53,1.53,0,0,0-2.46,1.21v16.17a1.52,1.52,0,0,1-1.52,1.53H564.3a1.53,1.53,0,0,1-1.53-1.53V220.72a1.53,1.53,0,0,1,2.46-1.21l3.41,2.62,18.68,14.41a1.53,1.53,0,0,0,2.46-1.21V219a1.52,1.52,0,0,1,1.54-1.52l2.82,0a1.52,1.52,0,0,1,1.51,1.52" transform="translate(-10.31 -14.32)"/><path class="cls-3" d="M639.29,230.75a16.45,16.45,0,1,1-12.91-12.91,16.47,16.47,0,0,1,12.91,12.91m-5.94,6.09a10.61,10.61,0,0,0-13.06-13.06A10.44,10.44,0,0,0,613,231.1,10.61,10.61,0,0,0,626,244.16a10.46,10.46,0,0,0,7.32-7.32" transform="translate(-10.31 -14.32)"/><path class="cls-3" d="M675.12,219.37a1.52,1.52,0,0,1,1.36,2.22l-1.87,3.65-12.4,24.34a1.53,1.53,0,0,1-2.72,0l-12.4-24.34-1.87-3.65a1.52,1.52,0,0,1,1.36-2.22h3.15a1.54,1.54,0,0,1,1.36.83l2.58,5,5.82,11.42a1.53,1.53,0,0,0,2.72,0L668,225.24l2.58-5a1.53,1.53,0,0,1,1.36-.83Z" transform="translate(-10.31 -14.32)"/><path class="cls-3" d="M708.84,250.41h-3.15a1.53,1.53,0,0,1-1.36-.83l-2.58-5-5.82-11.43a1.53,1.53,0,0,0-2.72,0l-5.83,11.43-2.58,5a1.53,1.53,0,0,1-1.36.83h-3.15a1.52,1.52,0,0,1-1.35-2.22l1.86-3.65,12.41-24.34a1.53,1.53,0,0,1,2.72,0l12.4,24.34,1.87,3.65a1.53,1.53,0,0,1-1.36,2.22" transform="translate(-10.31 -14.32)"/><path class="cls-3" d="M742.42,219.06v2.81a1.52,1.52,0,0,1-1.53,1.53H730.47a1.52,1.52,0,0,0-1.53,1.53v23.95a1.52,1.52,0,0,1-1.53,1.53H724.6a1.52,1.52,0,0,1-1.53-1.53V224.93a1.52,1.52,0,0,0-1.53-1.53H711.11a1.52,1.52,0,0,1-1.52-1.53v-2.81a1.52,1.52,0,0,1,1.52-1.53h29.78a1.52,1.52,0,0,1,1.53,1.53" transform="translate(-10.31 -14.32)"/><path class="cls-3" d="M752.47,227.93h0a1.53,1.53,0,0,0,1.53,1.53h18.08a1.52,1.52,0,0,1,1.53,1.53v2.81a1.52,1.52,0,0,1-1.53,1.53H754a1.53,1.53,0,0,0-1.53,1.53V240a4.55,4.55,0,0,0,4.54,4.54H778a1.52,1.52,0,0,1,1.53,1.52v2.82a1.52,1.52,0,0,1-1.53,1.53H757a10.36,10.36,0,0,1-10.36-10.36V227.93a10.43,10.43,0,0,1,10.4-10.4H778a1.52,1.52,0,0,1,1.53,1.53v2.81A1.52,1.52,0,0,1,778,223.4H757a4.55,4.55,0,0,0-4.54,4.53" transform="translate(-10.31 -14.32)"/><path class="cls-3" d="M66.79,89.15a3.94,3.94,0,0,1,2.38,1.69,8.05,8.05,0,0,1,1.34,5.42l-.17,80.61a2,2,0,0,0,2,2.18h154a4.23,4.23,0,0,0,4.23-4.23V73.09c0-3.58,1.07-9.62-1.46-12.14L211.8,43.78a3.4,3.4,0,0,1,0-4.8l23.36-23.35a3.53,3.53,0,0,1,3.15-1,3.79,3.79,0,0,1,1.93,1.07L257.52,33a6.42,6.42,0,0,1,1.85,4.5v165a5.39,5.39,0,0,1-5.38,5.39H17.18a3.53,3.53,0,0,1-3.52-3.53V182.57a3.51,3.51,0,0,1,3.52-3.52H33.83a2.57,2.57,0,0,0,2.56-2.33l.06-53a1.88,1.88,0,0,0-1.87-2H17.18a3.53,3.53,0,0,1-3.52-3.53V92.5A3.53,3.53,0,0,1,17.18,89H65a7.94,7.94,0,0,1,1.83.18" transform="translate(-10.31 -14.32)"/><path class="cls-3" d="M518,202.53a5.42,5.42,0,0,0,5.42,5.39h42.8a4.7,4.7,0,0,0,4.95-4.39V40.74a4.7,4.7,0,0,0-4.95-4.39H548.65a4.7,4.7,0,0,0-5,4.39V172a7,7,0,0,1-6.78,7.07c-1,0-1.92,0-2.72,0H523.3a5.43,5.43,0,0,0-5.43,5.46Z" transform="translate(-10.31 -14.32)"/><path class="cls-3" d="M666.48,179a4.87,4.87,0,0,1-4.77-4.95V145.71a4.87,4.87,0,0,0-4.78-5H632.87a4.87,4.87,0,0,0-4.78,5l.17,57.25a4.85,4.85,0,0,0,4.77,4.93h95.68A5.32,5.32,0,0,0,734,202.6l0-18.27a5.33,5.33,0,0,0-5.33-5.34Z" transform="translate(-10.31 -14.32)"/><path class="cls-3" d="M500.26,184.39a5.41,5.41,0,0,0-5.42-5.4H441.66c-1.17,0-2.23-1.27-3-2.91a13.36,13.36,0,0,1-1.24-5.2V117.53c0-3,1.9-5.52,4.24-5.52h27.65c2.34,0,4.24,2.47,4.24,5.52v9.59c0,3-2.18,5.15-4.53,5.15h-12a4.49,4.49,0,0,0-4.48,4.48v14.57a4.48,4.48,0,0,0,4.48,4.47h35.4c2.34,0,4.24-2.21,4.24-5.26V88.44c0-3-1.9-5.52-4.24-5.52H413.74c-2.35,0-4.25,2.47-4.25,5.52v114c0,3.05,1.9,5.52,4.25,5.52h81.18a5.42,5.42,0,0,0,5.42-5.44Z" transform="translate(-10.31 -14.32)"/></g></svg>